<svg xmlns="http://www.w3.org/2000/svg" xmlns:xlink="http://www.w3.org/1999/xlink" version="1.1" x="0px" y="0px" viewBox="0 0 100 125" enable-background="new 0 0 100 100" xml:space="preserve"><g><path d="M55.7,64.3c16.5,0,29.9-13.4,29.9-29.9c0-16.5-13.4-29.9-29.9-29.9S25.7,17.9,25.7,34.4C25.7,50.9,39.1,64.3,55.7,64.3z    M55.7,10.4c13.2,0,23.9,10.7,23.9,23.9c0,13.2-10.7,23.9-23.9,23.9S31.7,47.6,31.7,34.4C31.7,21.2,42.5,10.4,55.7,10.4z"/><path d="M85.1,59.6c-1.2-1.2-3.1-1.2-4.2,0C74.1,66.3,65.2,70,55.7,70C36,70,20,54,20,34.4c0-9.5,3.7-18.5,10.4-25.2   c1.2-1.2,1.2-3.1,0-4.2c-1.2-1.2-3.1-1.2-4.2,0C18.3,12.8,14,23.3,14,34.4C14,56.1,30.7,74,52,75.9c0,0,0,0.1,0,0.1v14H39.8   c-1.7,0-3,1.3-3,3s1.3,3,3,3h30.1c1.7,0,3-1.3,3-3s-1.3-3-3-3H58V76c0,0,0,0,0,0c10.3-0.6,19.8-4.8,27.1-12.1   C86.3,62.7,86.3,60.8,85.1,59.6z"/></g><text x="0" y="115" fill="#000000" font-size="5px" font-weight="bold" font-family="'Helvetica Neue', Helvetica, Arial-Unicode, Arial, Sans-serif">Created by inna belenkey</text><text x="0" y="120" fill="#000000" font-size="5px" font-weight="bold" font-family="'Helvetica Neue', Helvetica, Arial-Unicode, Arial, Sans-serif">from the Noun Project</text></svg>