<svg xmlns="http://www.w3.org/2000/svg" xmlns:xlink="http://www.w3.org/1999/xlink" version="1.1" x="0px" y="0px" viewBox="0 0 48 60" enable-background="new 0 0 48 48" xml:space="preserve"><g><g><path fill="none" stroke="#000000" stroke-width="2" stroke-linecap="round" stroke-linejoin="round" stroke-miterlimit="10" d="    M34.061,13.088c-5.104,0-9.245,4.141-9.245,9.247c0,3.64,3.994,7.242,3.994,7.242c0.644,0.579,1.17,1.762,1.17,2.628v2.817    c0,0.866,0.708,1.574,1.573,1.574h5.018c0.863,0,1.573-0.708,1.573-1.574v-2.817c0-0.866,0.526-2.049,1.17-2.628    c0,0,3.994-3.602,3.994-7.242C43.308,17.229,39.167,13.088,34.061,13.088z"/><line fill="none" stroke="#000000" stroke-width="2" stroke-linecap="round" stroke-linejoin="round" stroke-miterlimit="10" x1="30.121" y1="39.974" x2="38.22" y2="39.974"/><line fill="none" stroke="#000000" stroke-width="2" stroke-linecap="round" stroke-linejoin="round" stroke-miterlimit="10" x1="30.121" y1="43.411" x2="38.22" y2="43.411"/></g><g><line fill="none" stroke="#000000" stroke-width="2" stroke-linecap="round" stroke-linejoin="round" stroke-miterlimit="10" x1="4.692" y1="43.91" x2="4.692" y2="6.628"/><g><path fill="none" stroke="#000000" stroke-width="2" stroke-linecap="round" stroke-linejoin="round" stroke-miterlimit="10" d="     M41.564,43.827V47H9.892c0,0-2.937-0.052-4.245-1.317c-0.485-0.472-0.756-1.03-0.955-1.548"/></g><path fill="none" stroke="#000000" stroke-width="2" stroke-linecap="round" stroke-linejoin="round" stroke-miterlimit="10" d="    M39.857,1H8.609C6.455,1,4.692,2.716,4.692,4.812v0.995c0,2.096,1.762,3.812,3.917,3.812h32.956v6.073"/><path fill="none" stroke="#000000" stroke-width="2" stroke-linecap="round" stroke-linejoin="round" stroke-miterlimit="10" d="    M38.023,1c0,0-3.905,4.579,1.834,8.619"/></g></g><text x="0" y="63" fill="#000000" font-size="5px" font-weight="bold" font-family="'Helvetica Neue', Helvetica, Arial-Unicode, Arial, Sans-serif">Created by Creative Stall</text><text x="0" y="68" fill="#000000" font-size="5px" font-weight="bold" font-family="'Helvetica Neue', Helvetica, Arial-Unicode, Arial, Sans-serif">from the Noun Project</text></svg>