<svg xmlns="http://www.w3.org/2000/svg" xmlns:xlink="http://www.w3.org/1999/xlink" version="1.1" x="0px" y="0px" viewBox="0 0 100 125" enable-background="new 0 0 100 100" xml:space="preserve"><polygon points="43,50.107 43,70.002 65.106,59.581 "/><path d="M63.049,34.032c-1.301-2.974-3.848-5.313-7.02-6.386l10.77-18.653C66.822,8.994,66.844,9,66.867,9c1.104,0,2-0.896,2-2  s-0.896-2-2-2s-2,0.896-2,2c0,0.336,0.091,0.649,0.238,0.927L54.008,27.148C53.388,27.052,52.751,27,52.102,27  c-0.756,0-1.492,0.075-2.209,0.206L38.762,7.927C38.909,7.649,39,7.336,39,7c0-1.104-0.896-2-2-2s-2,0.896-2,2s0.896,2,2,2  c0.023,0,0.045-0.006,0.068-0.007l10.829,18.756c-3.041,1.113-5.478,3.395-6.742,6.278C27.167,34.593,16,46.142,16,60.313v0.375  c0,10.795,6.482,20.066,15.752,24.124l-0.627,3.563c-0.212,1.202,0.59,2.349,1.792,2.562c1.202,0.211,2.35-0.592,2.561-1.793  l0.511-2.899c2.001,0.49,4.089,0.756,6.24,0.756h19.543c2.479,0,4.874-0.353,7.147-0.997l0.554,3.141  c0.211,1.201,1.358,2.004,2.562,1.793c1.201-0.213,2.004-1.359,1.791-2.562l-0.697-3.963C81.927,80.165,88,71.138,88,60.688v-0.375  C88,46.21,76.94,34.701,63.049,34.032z M81,60.65C81,71.89,71.563,81,59.921,81H44.079C32.438,81,23,71.89,23,60.65V60.35  C23,49.111,32.438,40,44.079,40h15.842C71.563,40,81,49.111,81,60.35V60.65z"/><text x="0" y="115" fill="#000000" font-size="5px" font-weight="bold" font-family="'Helvetica Neue', Helvetica, Arial-Unicode, Arial, Sans-serif">Created by Yi Chen</text><text x="0" y="120" fill="#000000" font-size="5px" font-weight="bold" font-family="'Helvetica Neue', Helvetica, Arial-Unicode, Arial, Sans-serif">from the Noun Project</text></svg>