<svg xmlns="http://www.w3.org/2000/svg" xmlns:xlink="http://www.w3.org/1999/xlink" version="1.0" x="0px" y="0px" viewBox="0 0 32 40" enable-background="new 0 0 32 32" xml:space="preserve"><path d="M32,0v22c0,3.316-2.688,6-6,6s-6-2.684-6-6c0-3.312,2.688-6,6-6c0.703,0,1.371,0.145,2,0.367V8.668l-16,2.668V26  c0,3.316-2.688,6-6,6s-6-2.684-6-6c0-3.312,2.688-6,6-6c0.703,0,1.371,0.145,2,0.367V4L32,0z"/><text x="0" y="47" fill="#000000" font-size="5px" font-weight="bold" font-family="'Helvetica Neue', Helvetica, Arial-Unicode, Arial, Sans-serif">Created by Zlatko Najdenovski</text><text x="0" y="52" fill="#000000" font-size="5px" font-weight="bold" font-family="'Helvetica Neue', Helvetica, Arial-Unicode, Arial, Sans-serif">from the Noun Project</text></svg>