<svg xmlns="http://www.w3.org/2000/svg" xmlns:xlink="http://www.w3.org/1999/xlink" version="1.1" x="0px" y="0px" viewBox="0 0 100 125" enable-background="new 0 0 100 100" xml:space="preserve"><path d="M87.7,7.9L87.3,5l-2.9,0.5c-3,0.6-15.2,3.7-15.7,3.9l-2,0.5V13H33.3v-2.8l-2-0.5c-0.5-0.1-12.7-3.3-15.7-3.9l-2.9-0.5  l-0.3,2.9c-1.4,12.6,0.8,22.5,6.8,29.3c7.2,8.4,17.2,9.1,18.2,9.1c1.5,1.9,7.5,13.4,7.5,13.4c-0.2,12.5-9.7,18.6-9.7,18.6v11.8h-4.8  V95h39.8v-4.5h-5V78.7h0c0,0-9.4-6.3-9.6-18.6c0,0,5.5-11.7,7-13.7c1.8-0.1,11.2-1.1,18.1-9.1C86.8,30.4,89.1,20.5,87.7,7.9  L87.7,7.9z M23.1,34c-4.4-5.2-6.3-12.6-5.7-22.1c3.2,0.8,7.8,1.9,10.4,2.6c0,0,2.6,19.4,5.8,26.1C30.6,39.7,26.5,37.8,23.1,34  L23.1,34z M76.9,33.7c-3.3,3.8-7.4,5.6-10.4,6.5c3.1-6.7,5.6-26,5.6-26c2.6-0.7,7.2-1.9,10.4-2.6C83.2,21.1,81.3,28.5,76.9,33.7  L76.9,33.7z"/><text x="0" y="115" fill="#000000" font-size="5px" font-weight="bold" font-family="'Helvetica Neue', Helvetica, Arial-Unicode, Arial, Sans-serif">Created by Federico Panzano</text><text x="0" y="120" fill="#000000" font-size="5px" font-weight="bold" font-family="'Helvetica Neue', Helvetica, Arial-Unicode, Arial, Sans-serif">from the Noun Project</text></svg>