<svg xmlns="http://www.w3.org/2000/svg" xmlns:xlink="http://www.w3.org/1999/xlink" version="1.1" x="0px" y="0px" viewBox="0 0 100 125" enable-background="new 0 0 100 100" xml:space="preserve"><path d="M59.09,13.668v15.416c-5.211-0.466-8.791-1.261-11.104-1.968c-3.443-1.053-4.82-2.113-5.063-2.317  c-0.517-0.633-1.244-0.955-2.015-0.955c-0.321,0-0.648,0.055-0.972,0.167c-1.118,0.387-1.799,1.519-1.799,2.701v22.287  c-2.176-1.08-4.516-1.629-7.039-1.637c-0.67,0.032-1.391,0.076-2.394,0.207c-0.897,0.173-1.705,0.335-2.54,0.628  c-1.642,0.573-3.24,1.386-4.669,2.546c-2.823,2.232-5.238,5.807-5.331,10c3.396-1.018,5.851-1.182,8.255-1.365l3.452-0.152  l3.478-0.053c1.987,0.021,4.371,0.033,6.683,0.184c0.035,0.002,0.071,0.006,0.105,0.008c0.01,6.152,1.39,11.939,3.806,16.979  c-3.302,1.611-6.923,2.504-10.725,2.504c-15.396,0-27.877-14.594-27.877-32.589V13.668c0,0-0.172-5.547,27.882-5.547  C59.279,8.121,59.09,13.668,59.09,13.668z M96.658,26.712v32.589c0,17.996-12.482,32.578-27.873,32.578  c-15.395,0-27.875-14.582-27.875-32.578V26.712c0,0,5.077,5.548,27.872,5.548C91.575,32.26,96.658,26.712,96.658,26.712z   M83.852,65.943c-3.396,1.018-5.857,1.191-8.262,1.363l-3.451,0.152l-3.473,0.055c-1.986-0.01-4.371-0.021-6.689-0.184  c-2.406-0.174-4.863-0.348-8.244-1.377c0.098,4.182,2.519,7.746,5.336,9.988c2.93,2.266,6.201,3.371,9.848,3.381  c0.672-0.031,1.386-0.064,2.395-0.205c0.898-0.174,1.706-0.324,2.541-0.629c1.641-0.574,3.238-1.387,4.664-2.535  C81.337,73.721,83.758,70.135,83.852,65.943z"/><text x="0" y="115" fill="#000000" font-size="5px" font-weight="bold" font-family="'Helvetica Neue', Helvetica, Arial-Unicode, Arial, Sans-serif">Created by Asier Bilbo</text><text x="0" y="120" fill="#000000" font-size="5px" font-weight="bold" font-family="'Helvetica Neue', Helvetica, Arial-Unicode, Arial, Sans-serif">from the Noun Project</text></svg>