<svg xmlns="http://www.w3.org/2000/svg" xmlns:xlink="http://www.w3.org/1999/xlink" version="1.1" x="0px" y="0px" viewBox="0 0 90 112.5" style="enable-background:new 0 0 90 90;" xml:space="preserve"><g><path d="M89.857,42.2c-0.048-0.759-0.08-1.514-0.163-2.26c-1.275-11.338-6.793-21.388-14.909-28.578   c-0.52-0.461-1.028-0.93-1.568-1.366C65.721,3.941,56.258,0.267,45.95,0.048C45.632,0.041,45.322,0,45,0   c-0.385,0-0.755,0.048-1.14,0.056C31.307,0.374,20.037,5.848,12.057,14.453c-0.524,0.56-1.057,1.112-1.549,1.7   C4.981,22.747,1.319,30.946,0.306,39.94c-0.083,0.746-0.115,1.501-0.163,2.26C0.083,43.129,0,44.055,0,45   c0,24.431,19.58,44.333,43.86,44.945C44.245,89.953,44.615,90,45,90c0.322,0,0.632-0.039,0.95-0.047   c10.662-0.223,20.414-4.152,28.021-10.574c0.572-0.48,1.113-0.994,1.661-1.506C84.447,69.654,90,57.975,90,45   C90,44.055,89.916,43.129,89.857,42.2z M87.775,41.243c-3.328,2.526-13.669,8.937-33.698,10.503   c-1.681-20.22,12.616-34.012,19.071-39.129C81.316,19.724,86.782,29.841,87.775,41.243z M45,2.035   c10.026,0,19.238,3.479,26.557,9.256c-6.9,5.565-21.226,19.814-19.506,40.598c-2.244,0.135-4.568,0.23-7.051,0.23   c-3.953,0-7.599-0.184-10.96-0.508c-0.131-2.121-0.227-4.303-0.227-6.611c0-24.986,8.454-39.104,11.139-42.966   C44.968,2.035,44.984,2.035,45,2.035z M42.398,2.166C38.938,7.541,31.78,21.476,31.78,45c0,2.216,0.08,4.318,0.199,6.365   c-5.645-0.66-10.459-1.689-14.444-2.889c-0.072-15.886-2.936-26.715-4.696-31.872C20.176,8.303,30.647,2.876,42.398,2.166z    M11.282,18.457c1.681,5.335,4.068,15.357,4.207,29.356c-7.083-2.375-11.345-5.116-13.264-6.57   C2.972,32.682,6.241,24.844,11.282,18.457z M2.102,43.698c2.451,1.712,6.785,4.191,13.371,6.316   c-0.207,14.723-4.826,20.402-4.87,20.459c-0.028,0.031-0.016,0.078-0.04,0.111C5.232,63.43,2.034,54.59,2.034,45   C2.034,44.56,2.085,44.134,2.102,43.698z M11.644,72.029c0.175-0.057,0.361-0.076,0.492-0.223   c0.215-0.246,5.053-6.025,5.375-21.174c4.072,1.176,8.922,2.186,14.623,2.813c1.434,18.441,7.242,29.699,10.265,34.391   C30.008,87.084,19.012,81.105,11.644,72.029z M45,87.967c-0.016,0-0.032,0-0.047,0c-2.356-3.385-9.121-14.699-10.758-34.299   c3.329,0.303,6.912,0.484,10.805,0.484c2.555,0,4.938-0.094,7.246-0.23c1.946,13.824,13.371,21.354,19.695,24.498   C64.564,84.379,55.197,87.967,45,87.967z M73.594,76.979c-5.725-2.705-17.348-9.799-19.311-23.199   c18.778-1.445,29.21-7.008,33.615-10.082c0.016,0.437,0.068,0.862,0.068,1.303C87.967,57.705,82.389,69.105,73.594,76.979z"/></g><text x="0" y="105" fill="#000000" font-size="5px" font-weight="bold" font-family="'Helvetica Neue', Helvetica, Arial-Unicode, Arial, Sans-serif">Created by Douglas Santos</text><text x="0" y="110" fill="#000000" font-size="5px" font-weight="bold" font-family="'Helvetica Neue', Helvetica, Arial-Unicode, Arial, Sans-serif">from the Noun Project</text></svg>