<svg xmlns="http://www.w3.org/2000/svg" xmlns:xlink="http://www.w3.org/1999/xlink" version="1.1" x="0px" y="0px" viewBox="0 0 100 125" enable-background="new 0 0 100 100" xml:space="preserve"><path d="M45,2H29v48h16V2z M76.979,82C82.012,75.311,85,66.998,85,58c0-19.317-13.765-35.479-32-39.195v16.571  C62.312,38.679,69,47.571,69,58c0,7.863-3.802,14.855-9.664,19.236c-1.54-3.526-3.698-6.721-6.336-9.451V58H21v16h9  c5.906,0,11.063,3.226,13.835,8H14v16h72V82H76.979z"/><text x="0" y="115" fill="#000000" font-size="5px" font-weight="bold" font-family="'Helvetica Neue', Helvetica, Arial-Unicode, Arial, Sans-serif">Created by Evgeniy Artsebasov</text><text x="0" y="120" fill="#000000" font-size="5px" font-weight="bold" font-family="'Helvetica Neue', Helvetica, Arial-Unicode, Arial, Sans-serif">from the Noun Project</text></svg>