<svg xmlns="http://www.w3.org/2000/svg" xmlns:xlink="http://www.w3.org/1999/xlink" version="1.1" x="0px" y="0px" viewBox="0 0 100 125" enable-background="new 0 0 100 100" xml:space="preserve"><g><g><path d="M28.008,77.841l0.008-0.315l-0.027,0.315c-13.966,0-22.304-5.414-22.304-5.414c-0.546-1.374-0.496-4.76-0.496-4.76    c-0.172-2.437,0.035-7.359,4.303-8.444c5.727-1.455,10.477-3.673,10.477-3.673c0.938-1.292,1.106-3.998,1.106-3.998    c-1.792-1.927-2.587-4.339-2.921-6.379c-0.119,0.087-0.255,0.145-0.406,0.141c-0.538-0.011-1.259-0.799-2.037-3.782    c-0.978-3.756-0.06-4.496,0.828-4.489c0.205,0.002,0.238-0.002,0.416,0.051l0.002-0.082c0,0-2.633-8.777,3.7-12.637    c0,0-1.112-0.901-1.027-2.198c0,0,2.903,0.329,5.685,0.335c1.264,0.003,2.504-0.062,3.434-0.254    c0.372-0.077,0.748-0.108,1.121-0.098c2.613,0.066,5.116,2.101,5.557,4.064c0,0,0.038-0.003,0.108-0.003    c0.826-0.002,6.014,0.395,3.525,10.825c0,0-0.002,0.014-0.006,0.039c0.12-0.026,0.247-0.042,0.374-0.044    c0.891-0.011,1.817,0.723,0.835,4.489c-0.784,3.009-1.51,3.784-2.05,3.782c-0.18-0.001-0.339-0.087-0.472-0.206    c-0.328,2.057-1.122,4.502-2.938,6.451l0.096-0.006c0,0,0.148,2.396,0.948,3.756c0.034,0.017,4.643,2.322,10.129,3.784    c-0.816,0.251-1.693,0.512-2.637,0.781c-0.326,0.093-0.554,0.158-0.743,0.222c-0.015,0.004-0.031,0.008-0.048,0.013    c-0.084,0.023-0.185,0.05-0.303,0.083c-0.02,0.006-0.04,0.011-0.06,0.017c-1.93,0.542-4.128,1.39-6.534,2.522    c-5.056,2.379-6.623,7.241-6.752,9.74c-0.004,0.069-0.005,0.138-0.005,0.208v1.483v3.673    C28.602,77.837,28.307,77.841,28.008,77.841z M90.411,66.421c-2.683-1.262-4.524-1.881-5.55-2.185c0,0,0,0,0.001,0    c-0.508-0.151-0.817-0.225-0.926-0.261c-0.005-0.002-0.008-0.003-0.012-0.004c-0.01-0.003-0.019-0.007-0.024-0.01    c-0.127-0.068-7.193-1.924-10.434-3.688c-0.762-0.488-1.24-0.853-1.24-0.853v-0.394h-0.002v-0.1h-0.002v-3.012    c0,0,0.008,0,0.023,0.001c0.006,0,0.015,0,0.024,0c0.012,0,0.023,0,0.04,0.001c0.02,0,0.044,0.001,0.07,0.001    c0.011,0,0.02,0,0.032,0c0.033,0,0.069,0,0.111,0.001c0.01,0,0.019,0,0.029,0c0.046,0,0.095,0,0.15,0c0.005,0,0.009,0,0.014,0    c0.309-0.002,0.753-0.012,1.297-0.042c0,0,0.001,0,0.001,0c0.106-0.006,0.216-0.012,0.329-0.02    c0.008-0.001,0.016-0.001,0.024-0.002c0.113-0.007,0.228-0.016,0.348-0.025c0.005,0,0.01-0.001,0.014-0.001    c0.498-0.038,1.05-0.092,1.64-0.169l0,0l0,0c3.132-0.406,7.315-1.442,9.882-4.065c0,0-6.569-1.861-5.389-13.82    c0.034-0.344,0.064-0.685,0.091-1.026v0c0,0,0-0.001,0-0.001c0.015-0.188,0.028-0.375,0.041-0.562    c0.01-0.148,0.022-0.297,0.031-0.445c0.012-0.199,0.022-0.396,0.033-0.594c0.006-0.129,0.013-0.257,0.019-0.385    c0.009-0.213,0.017-0.425,0.023-0.636c0.003-0.099,0.006-0.199,0.008-0.298c0.006-0.236,0.011-0.472,0.013-0.706    c0-0.038,0-0.076,0-0.114c0.02-2.848-0.227-5.518-0.789-7.858v0c-0.001-0.003-0.002-0.006-0.002-0.009    c-0.082-0.339-0.17-0.671-0.265-0.995c-0.007-0.025-0.014-0.05-0.022-0.075c-0.144-0.486-0.304-0.955-0.479-1.405    c-0.018-0.045-0.036-0.09-0.054-0.135c-0.098-0.246-0.202-0.486-0.31-0.721c-0.024-0.052-0.047-0.104-0.071-0.155    c-0.061-0.128-0.123-0.255-0.187-0.379c-0.031-0.061-0.064-0.119-0.096-0.179c-0.103-0.192-0.208-0.38-0.318-0.562    c-0.046-0.076-0.092-0.151-0.139-0.225c-0.085-0.134-0.172-0.266-0.261-0.394c-0.071-0.103-0.143-0.204-0.217-0.303    c-0.063-0.084-0.127-0.167-0.192-0.248c-0.08-0.101-0.163-0.199-0.246-0.295c-0.082-0.094-0.165-0.186-0.249-0.276    c-0.086-0.092-0.173-0.181-0.262-0.269c-0.06-0.059-0.12-0.119-0.182-0.176c-0.13-0.121-0.264-0.236-0.401-0.348    c-0.058-0.047-0.118-0.093-0.177-0.139c-0.122-0.094-0.247-0.185-0.374-0.271c-0.055-0.037-0.109-0.075-0.164-0.111    c-0.146-0.094-0.295-0.183-0.447-0.268c-0.056-0.031-0.113-0.063-0.17-0.093c-0.171-0.09-0.346-0.175-0.525-0.253    c-0.048-0.021-0.097-0.04-0.145-0.059c-0.164-0.068-0.332-0.13-0.502-0.188c-0.04-0.013-0.079-0.028-0.119-0.041    c-0.199-0.063-0.404-0.118-0.612-0.168c-0.053-0.013-0.106-0.025-0.16-0.036c-0.214-0.047-0.432-0.088-0.656-0.12    c-0.03-0.004-0.061-0.007-0.092-0.011c-0.211-0.028-0.426-0.048-0.645-0.063c-0.045-0.003-0.09-0.007-0.136-0.009    c-0.237-0.012-0.48-0.016-0.727-0.013c-0.052,0.001-0.105,0.003-0.157,0.004c-0.258,0.007-0.52,0.02-0.789,0.045    c0,0-4.167-5.014-12.458-1.861c-0.058,0.022-0.119,0.045-0.181,0.069c-0.017,0.006-0.032,0.012-0.049,0.019    c-0.071,0.027-0.143,0.055-0.219,0.084c-0.008,0.003-0.017,0.007-0.026,0.01c-0.07,0.027-0.141,0.055-0.214,0.084    c-0.01,0.004-0.02,0.008-0.03,0.012c-0.079,0.032-0.16,0.065-0.242,0.099c-0.012,0.005-0.024,0.01-0.036,0.015    c-0.17,0.071-0.348,0.149-0.532,0.234c-0.012,0.005-0.023,0.011-0.035,0.016c-0.094,0.044-0.189,0.089-0.286,0.136c0,0,0,0,0,0    c-0.097,0.048-0.196,0.098-0.296,0.15c-0.008,0.004-0.016,0.008-0.024,0.012c-0.1,0.052-0.202,0.107-0.304,0.164    c-0.006,0.003-0.013,0.007-0.019,0.011c-0.208,0.116-0.42,0.243-0.635,0.381c-0.009,0.006-0.018,0.011-0.026,0.017    c-0.216,0.139-0.435,0.289-0.655,0.452c-0.006,0.004-0.012,0.009-0.018,0.013c-0.112,0.083-0.224,0.169-0.337,0.259c0,0,0,0,0,0    c-0.228,0.182-0.456,0.378-0.683,0.59c-0.005,0.005-0.01,0.009-0.015,0.014c-0.225,0.21-0.448,0.435-0.67,0.676    c-0.004,0.005-0.009,0.01-0.013,0.014c-0.337,0.369-0.669,0.776-0.991,1.227c-0.002,0.003-0.004,0.006-0.007,0.009    c-0.213,0.299-0.421,0.616-0.623,0.955c-0.004,0.007-0.008,0.013-0.012,0.02c-0.203,0.34-0.399,0.7-0.588,1.083    c-0.001,0.003-0.003,0.005-0.004,0.008c-0.095,0.192-0.188,0.39-0.279,0.594c-0.001,0.002-0.002,0.005-0.003,0.007    c-0.18,0.405-0.352,0.832-0.514,1.284c-0.004,0.012-0.008,0.024-0.013,0.036c-0.16,0.447-0.31,0.918-0.449,1.414    c-0.003,0.012-0.007,0.024-0.01,0.036c-0.07,0.25-0.137,0.506-0.201,0.77c0,0.001-0.001,0.003-0.001,0.004    c-0.375,1.541-0.646,3.305-0.779,5.327c0,0.006-0.001,0.012-0.001,0.018c-0.027,0.41-0.048,0.829-0.063,1.261    c-0.001,0.018-0.001,0.037-0.002,0.055c-0.014,0.424-0.023,0.858-0.025,1.303c0,0.022,0,0.045,0,0.068    c-0.002,0.45,0.002,0.909,0.013,1.381c0.006,0.239,0.009,0.473,0.012,0.706c0.002,0.158,0.003,0.313,0.003,0.467    c0,0.064,0.001,0.129,0.001,0.193c0,0.195-0.001,0.388-0.002,0.579c0,0.016,0,0.033,0,0.049c-0.002,0.202-0.005,0.402-0.009,0.599    C46.936,51.311,41.333,51.4,41.333,51.4s2.461,3.576,10.368,4.43v0c0,0,0,0,0.001,0c0.563,0.061,1.155,0.108,1.775,0.138    c0.022,0.001,0.043,0.003,0.065,0.004c0.277,0.013,0.562,0.022,0.851,0.029c0.047,0.001,0.091,0.004,0.137,0.004    c0.334,0.006,0.676,0.008,1.026,0.005v3.368c0,0-0.478,0.364-1.24,0.853c-3.241,1.763-10.307,3.619-10.434,3.688    c-0.039,0.021-0.226,0.067-0.552,0.157c0,0,0,0,0.001,0c-0.895,0.249-2.869,0.849-5.96,2.303    c-4.218,1.984-4.441,6.297-4.441,6.297v1.483v5.097c1.853,1.113,13.169,7.439,31.068,7.439l0.038-0.443l-0.011,0.443    c17.239,0,28.373-5.869,30.826-7.297v-5.24v-1.442C94.851,72.718,94.629,68.406,90.411,66.421z"/></g></g><text x="0" y="115" fill="#000000" font-size="5px" font-weight="bold" font-family="'Helvetica Neue', Helvetica, Arial-Unicode, Arial, Sans-serif">Created by Gregor Črešnar</text><text x="0" y="120" fill="#000000" font-size="5px" font-weight="bold" font-family="'Helvetica Neue', Helvetica, Arial-Unicode, Arial, Sans-serif">from the Noun Project</text></svg>